<svg width="24" height="25" viewBox="0 0 24 25" fill="none" xmlns="http://www.w3.org/2000/svg">
<path d="M11.7529 14.2881C12.3548 14.2881 12.932 14.0791 13.3577 13.707C13.7833 13.3349 14.0224 12.8302 14.0224 12.304C14.0224 12.2459 14.0193 12.1883 14.0136 12.1314L11.5555 14.2805C11.6206 14.2855 11.6862 14.2881 11.7529 14.2881ZM19.2648 6.16647L18.3992 5.41036C18.3688 5.3838 18.3276 5.36888 18.2846 5.36888C18.2416 5.36888 18.2004 5.3838 18.17 5.41036L15.9549 7.34759C14.7329 6.80159 13.3592 6.52859 11.8339 6.52859C7.93938 6.52859 5.03365 8.30195 3.11677 11.8487C3.03972 11.9913 2.99976 12.1471 2.99976 12.3049C2.99976 12.4626 3.03972 12.6184 3.11677 12.761C3.88271 14.1716 4.80502 15.3021 5.88369 16.1527L3.74006 18.0262C3.70968 18.0528 3.69262 18.0888 3.69262 18.1264C3.69262 18.164 3.70968 18.2 3.74006 18.2266L4.60509 18.9829C4.63549 19.0094 4.6767 19.0243 4.71968 19.0243C4.76265 19.0243 4.80387 19.0094 4.83427 18.9829L19.2648 6.36702C19.2799 6.35385 19.2919 6.33822 19.3 6.32102C19.3082 6.30381 19.3124 6.28537 19.3124 6.26675C19.3124 6.24812 19.3082 6.22968 19.3 6.21247C19.2919 6.19527 19.2799 6.17964 19.2648 6.16647ZM8.18659 12.304C8.18654 11.7654 8.34603 11.236 8.64954 10.7674C8.95305 10.2987 9.39022 9.90682 9.91846 9.6298C10.4467 9.35278 11.048 9.20011 11.6638 9.18666C12.2796 9.17321 12.8889 9.29943 13.4323 9.55304L12.4471 10.4144C12.0498 10.3032 11.6251 10.2898 11.2197 10.3757C10.8142 10.4616 10.4436 10.6435 10.1486 10.9014C9.85365 11.1593 9.64561 11.4833 9.54735 11.8378C9.44909 12.1922 9.46441 12.5635 9.59163 12.9109L8.60644 13.7723C8.32997 13.3206 8.18573 12.8162 8.18659 12.304Z" fill="#F1F1F1"/>
<path d="M20.8803 11.9346C20.152 10.6462 19.285 9.59552 18.2795 8.78271L15.2969 11.2881C15.5483 11.8401 15.6041 12.4414 15.4574 13.0195C15.3107 13.5975 14.9678 14.1275 14.4703 14.5454C13.9727 14.9634 13.3417 15.2513 12.6535 15.3745C11.9653 15.4978 11.2493 15.4509 10.5921 15.2398L8.06226 17.3647C9.23593 17.8208 10.5413 18.0489 11.9785 18.0489C15.9556 18.0489 18.9228 16.3092 20.8803 12.8297C20.959 12.6897 20.9998 12.5369 20.9998 12.3821C20.9998 12.2274 20.959 12.0745 20.8803 11.9346Z" fill="#F1F1F1"/>
</svg>
